<svg xmlns="http://www.w3.org/2000/svg" viewBox="0 0 150.76 46.7">
  <defs>
    <style>
      .cls-1 {
        fill: #fff;
      }
    </style>
  </defs>
  <title>codium-white96</title>
  <g id="Layer_2" data-name="Layer 2">
    <g id="Layer_1-2" data-name="Layer 1">
      <g>
        <rect class="cls-1" x="51.27" y="34.74" width="99.49" height="1.42" rx="0.71" ry="0.71"/>
        <g>
          <path class="cls-1" d="M64.62,19.06a6.35,6.35,0,0,0-4.74-2.34,5.4,5.4,0,0,0-4,1.73,5.69,5.69,0,0,0-1.68,4.11,5.52,5.52,0,0,0,1.68,4.05,5.43,5.43,0,0,0,4,1.69,5.69,5.69,0,0,0,3.22-1,5.25,5.25,0,0,0,2-2.62l1.71,1.65c-1.53,2.9-3.73,4.34-6.62,4.34a8.45,8.45,0,0,1-6-2.23,7.69,7.69,0,0,1-2.51-5.92,7.9,7.9,0,0,1,2.38-5.84A8,8,0,0,1,60,14.36a7.61,7.61,0,0,1,6.62,3.33Z"/>
          <path class="cls-1" d="M76,30.71a8.38,8.38,0,0,1-6-2.36,7.64,7.64,0,0,1-2.51-5.79A7.73,7.73,0,0,1,70,16.75a8.36,8.36,0,0,1,6-2.39,8.47,8.47,0,0,1,6,2.39,7.68,7.68,0,0,1,2.53,5.81A7.59,7.59,0,0,1,82,28.35,8.49,8.49,0,0,1,76,30.71Zm0-14a6,6,0,0,0-4.27,1.7,5.54,5.54,0,0,0-1.77,4.14,5.39,5.39,0,0,0,1.8,4.09,6.31,6.31,0,0,0,8.51,0,5.59,5.59,0,0,0,0-8.23A6.12,6.12,0,0,0,76,16.72Z"/>
          <path class="cls-1" d="M87.13,19.08a7.76,7.76,0,0,1,3-3.15,8.2,8.2,0,0,1,4.21-1.11h3.81V10.63h2.43V30.71H94.43a8,8,0,0,1-5.79-2.27,7.51,7.51,0,0,1-2.38-5.68A8.19,8.19,0,0,1,87.13,19.08Zm11-2H94.63a5.64,5.64,0,0,0-4.09,1.63,5.38,5.38,0,0,0-1.68,4,5,5,0,0,0,1.64,3.89,5.8,5.8,0,0,0,4,1.5h3.56Z"/>
          <path class="cls-1" d="M106,30.71h-2.55V14.59H106ZM103.49,12a1.26,1.26,0,0,1,1.23-1.25A1.25,1.25,0,0,1,106,12a1.25,1.25,0,0,1-.36.9,1.22,1.22,0,0,1-.89.37,1.19,1.19,0,0,1-.86-.37A1.22,1.22,0,0,1,103.49,12Z"/>
          <path class="cls-1" d="M108.76,23.75V14.64h2.51v9A4.8,4.8,0,0,0,112.52,27a4.15,4.15,0,0,0,3.18,1.37A4.21,4.21,0,0,0,118.93,27a4.72,4.72,0,0,0,1.26-3.34v-9h2.56V30.51h-2.56V28.83A9.31,9.31,0,0,1,118,30.2a6,6,0,0,1-2.51.51,6.37,6.37,0,0,1-4.78-2A6.83,6.83,0,0,1,108.76,23.75Z"/>
          <path class="cls-1" d="M139.26,30.71h-2.49v-9a4.8,4.8,0,0,0-1.25-3.35,4.48,4.48,0,0,0-6.44,0,4.75,4.75,0,0,0-1.26,3.36v9h-2.55V14.82h2.55v1.65A9.54,9.54,0,0,1,130,15.1a6,6,0,0,1,2.51-.51,6.31,6.31,0,0,1,3.23.85,6.76,6.76,0,0,1,2.39,2.27,7.87,7.87,0,0,1,2.62-2.26,6.81,6.81,0,0,1,3.25-.86,6.37,6.37,0,0,1,4.79,2,6.83,6.83,0,0,1,2,4.92v9.16h-2.51v-9A4.75,4.75,0,0,0,147,18.32,4.13,4.13,0,0,0,143.82,17a4.34,4.34,0,0,0-3.26,1.35,4.53,4.53,0,0,0-1.3,3.3Z"/>
        </g>
      </g>
      <path class="cls-1" d="M.19,25.74.28,42.91S0,45.15,3.55,46.7H38.39S29,45.93,13.27,36.39A74.12,74.12,0,0,1,.19,25.74Z"/>
      <path class="cls-1" d="M0,21.21l7.68,7.31S2,21.86,1.55,1.5C1.55,1.5.16,3,.23,4.12Z"/>
      <path class="cls-1" d="M4.5.33s-.82,18.55,6.66,28c0,0-3-11.9,1.94-28.08Z"/>
      <path class="cls-1" d="M16.06.36s-5.63,20-.64,30c0,0,.66,1.63,3.88,1.21s14.82-2.29,27-18.19l-.17-10S44.79.06,41.6,0,16.06.36,16.06.36Z"/>
      <path class="cls-1" d="M21.61,34s11.55-.51,24.72-15.85V28.45S31.68,36.15,21.61,34Z"/>
      <path class="cls-1" d="M46.46,31.82l-.07,10.93a4.92,4.92,0,0,1-.77,2.17s-15.14-1.84-25.81-8.23C19.81,36.69,29.74,39.37,46.46,31.82Z"/>
    </g>
  </g>
</svg>
