<svg xmlns="http://www.w3.org/2000/svg" viewBox="0 0 46.46 46.7">
  <defs>
    <style>
      .cls-1 {
        fill: #fff;
      }
    </style>
  </defs>
  <title>isotipo-codium-white</title>
  <g id="Layer_2" data-name="Layer 2">
    <g id="Layer_1-2" data-name="Layer 1">
      <path class="cls-1" d="M.19,25.74.28,42.91S0,45.15,3.55,46.7H38.39S29,45.93,13.27,36.39A74.12,74.12,0,0,1,.19,25.74Z"/>
      <path class="cls-1" d="M0,21.21l7.68,7.31S2,21.86,1.55,1.5C1.55,1.5.16,3,.23,4.12Z"/>
      <path class="cls-1" d="M4.5.33s-.82,18.55,6.66,28c0,0-3-11.9,1.94-28.08Z"/>
      <path class="cls-1" d="M16.06.36s-5.63,20-.64,30c0,0,.66,1.63,3.88,1.21s14.82-2.29,27-18.19l-.17-10S44.79.06,41.6,0,16.06.36,16.06.36Z"/>
      <path class="cls-1" d="M21.61,34s11.55-.51,24.72-15.85V28.45S31.68,36.15,21.61,34Z"/>
      <path class="cls-1" d="M46.46,31.82l-.07,10.93a4.92,4.92,0,0,1-.77,2.17s-15.14-1.84-25.81-8.23C19.81,36.69,29.74,39.37,46.46,31.82Z"/>
    </g>
  </g>
</svg>
