<svg xmlns="http://www.w3.org/2000/svg" viewBox="0 0 589.98 205.25">
  <defs>
    <style>
      .cls-1 {
        fill: #fff;
      }
    </style>
  </defs>
  <title>reaccion-logo-white</title>
  <g id="Layer_2" data-name="Layer 2">
    <g id="Layer_1-2" data-name="Layer 1">
      <path class="cls-1" d="M213.83,93.79a1,1,0,0,0-1.78-.68c-9.77,10.24-12.6,11.29-12.6,11.29a6.85,6.85,0,0,1-1.52.61,2.31,2.31,0,0,1-2.71-1.73c-7.91-30.72-26-46.3-26-46.3C148,31.07,137.92,37.31,137.92,37.31c-14.17,7.4-20.73,47.79-20.73,47.79-6.59,33.5,5.8,66,8.47,72.64,8.08,20,22.75,19.31,22.75,19.31,7.08.23,17.62-6.75,18.33-7.23l.08,0c25.18-19.8,28.74-41.5,29.06-46a2.92,2.92,0,0,1,1.72-2.38c13-5.76,14.89-17,14.89-17a37.49,37.49,0,0,0,1.35-10.58Zm-19.2,24.74h0a10.31,10.31,0,0,0-1.28,2.12c-1.45,3.86-15.31,32.41-32.88,43.06,0,0-3.83,3-12.51,2.81,0,0-15.52,1.72-22.29-23.76,0,0-14.29-52.18,6.49-88.58,0,0,5.73-9.68,19.67-4.89,0,0,26.69,9.38,40.86,55.9a4.81,4.81,0,0,0,6.92,3.23s2.27-1.26,4.86-3c1.28-.86,4.51-2.68,1.92,1.54-2.48,4-5.34,7.32-11.76,11.56Z"/>
      <path class="cls-1" d="M77.41,2.53a1.21,1.21,0,0,0,0,2.27c12.66,5,15.4,7.58,15.4,7.58,3.37,2.91,1.73,4,1.73,4C75.82,29.52,58.26,56.5,58.26,56.5c-17.44,28.61-8.23,36-8.23,36,11.67,10.93,52,3.78,52,3.78,33.79-4.84,60.41-27.28,65.76-32,16.2-14.23,10.72-27.85,10.72-27.85-2.12-6.78-12.21-14.42-12.88-14.92l-.07-.05C139.36,4.83,117.47,8.41,112.16,9.64A2.33,2.33,0,0,1,110,9a31.45,31.45,0,0,0-21.3-9C83.51,0,80,1.61,77.41,2.53ZM109,12.3h0a6.09,6.09,0,0,0,3.92.56c4-.33,30.84-3.06,51.76,14.91,0,0,8.45,5.34,10.55,15.21a7.68,7.68,0,0,1-.1,2.74c-.4,1.39-4.49,12-24.07,23.72,0,0-53.8,24-79.73,20.85A14,14,0,0,1,61,83.68a20.48,20.48,0,0,1-2.72-11.37S56.86,49.87,96.09,21.14c0,0,5.61-3.28-.11-10.15a15.66,15.66,0,0,0-5.17-4.8c-1.16-.7-.78-2.29.55-2,4.78.93,10.94,4.76,17.67,8.14Z"/>
      <path class="cls-1" d="M0,111.85a.74.74,0,0,0,1.28.53c10.16-10.52,13.81-12.13,13.81-12.13,4-2,4.34,0,4.34,0,4.88,22.34,23,49,23,49,19.62,27.16,30,21.55,30,21.55C87,164.21,96,124.3,96,124.3c10.37-41.1-.37-66.06-2.63-72.82C86.56,31,70.51,30.61,70.51,30.61c-7.3-.69-18.78,6.11-18.78,6.11C22.3,57.05,19.88,82.59,19.88,82.59A28.64,28.64,0,0,0,2.1,99.21,46.08,46.08,0,0,0,0,111.85ZM22,85.48h0a1.33,1.33,0,0,0,.81-.81c1.51-4.27,11.53-30.39,35.78-42.49a32.09,32.09,0,0,1,16.51-2.54s13.06,1.23,18.25,27.08c0,0,8.94,49.06-16.47,83.31,0,0-7,10.57-17.63,6,0,0-19.57-12.37-36.74-56.77,0,0-1.29-4.54-6.84-3.27a22.07,22.07,0,0,0-11,8.78.3.3,0,0,1-.54-.26C6,100,8.73,90.37,22,85.48Z"/>
      <path class="cls-1" d="M140.66,203.72c1.51-.49,1.89-3.17.34-3.85-13.28-5.79-14-7.08-14-7.08-3.32-3-1.66-4-1.66-4,18.93-12.82,37-39.48,37-39.48,17.93-28.3,8.86-35.89,8.86-35.89-11.47-11.13-51.88-4.7-51.88-4.7-33.87,4.24-60.88,26.2-66.32,30.81-16.45,13.94-11.21,27.66-11.21,27.66,2,6.87,12.16,14.79,12.63,15.16l0,0c27.45,18.2,50.48,13.5,53.94,12.65a.79.79,0,0,1,.78.25,28.62,28.62,0,0,0,21.71,10c5.41-.39,7.41-.71,9.85-1.52Zm-28.94-10.79h0c-.16-.13-2.62-2.81-3.41-2.75-21.38,1.6-28.69,3-51.81-12.61,0,0-9.31-6.25-11.32-16.16a16,16,0,0,1-.18-2.9c.12-3.33,2-11.1,23.07-24.87,0,0,52.79-30.43,87.08-19.29.43.14,1.64.76,2,1,3.09,1.59,8.58,7.8,7.36,17.13,0,0-1.75,20.86-41.19,52.58,0,0-5.86,3.54,0,9.18a20,20,0,0,0,7.56,5.93c1.21.55.52,1.66-.41,1.53-5.16-.71-11.86-3-18.8-8.74Z"/>
      <path class="cls-1" d="M250.05,94.56v11.36h.17q5.42-12.19,12.65-12.2c2.3,0,5.07,1.21,8.29,3.62l-3.45,11.06q-4.62-3-7.4-3-4.33,0-7.3,5.37t-3,6.26v17.18H237.56V94.56Z"/>
      <path class="cls-1" d="M312.84,121.94v7.86Q305.69,135,295.13,135t-16.74-5.62q-6.25-5.62-6.26-14.88a20.19,20.19,0,0,1,5.88-15,20.42,20.42,0,0,1,15-5.85,19.83,19.83,0,0,1,15,6.16q5.87,6.16,5.49,16.51H285a11.4,11.4,0,0,0,3.82,8.31q3.45,2.91,9.26,2.92,7,0,14.72-5.68Zm-27.55-12.11h17.24q-1-8.67-8.62-8.67T285.29,109.83Z"/>
      <path class="cls-1" d="M357.39,75.51l26.1,58.75H367.75l-4.84-11.61H336.6l-4.39,11.61h-15.5l23.73-58.75Zm1.24,36.88h0l-9.52-22.83-8.63,22.83Z"/>
      <path class="cls-1" d="M423.57,123.41v9A39.88,39.88,0,0,1,410.15,135q-10.47,0-16.73-5.62t-6.27-14.88a19.48,19.48,0,0,1,6.33-14.93q6.33-5.86,16.13-5.87A38.64,38.64,0,0,1,423,96.33v9.29A22.17,22.17,0,0,0,412.8,103a12.67,12.67,0,0,0-9,3.12,10.83,10.83,0,0,0-3.36,8.34,11.36,11.36,0,0,0,3.28,8.49,11.77,11.77,0,0,0,8.62,3.22q4,0,11.19-2.73Z"/>
      <path class="cls-1" d="M466.63,123.41v9A39.87,39.87,0,0,1,453.22,135q-10.47,0-16.74-5.62t-6.27-14.88a19.48,19.48,0,0,1,6.33-14.93q6.33-5.86,16.13-5.87A38.64,38.64,0,0,1,466,96.33v9.29A22.16,22.16,0,0,0,455.87,103a12.65,12.65,0,0,0-9,3.12,10.81,10.81,0,0,0-3.37,8.34,11.4,11.4,0,0,0,3.28,8.49,11.77,11.77,0,0,0,8.62,3.22q4,0,11.19-2.73Z"/>
      <path class="cls-1" d="M519.41,93.72a23.74,23.74,0,0,1,15.83,5.47q6.5,5.48,6.5,15.24t-6.6,15.2A24.12,24.12,0,0,1,519.41,135q-9.88,0-16.17-5.75A19.29,19.29,0,0,1,497,114.35q0-9.34,6.41-15t16-5.64Zm0,33.9h0q9,0,9-13.52,0-12.94-9-12.94a7.76,7.76,0,0,0-6.71,3.42q-2.42,3.4-2.42,9.77,0,13.26,9.13,13.27Zm13.75-51.56h0L519,88.63h-6.4L519,76.06Z"/>
      <path class="cls-1" d="M562.6,94.56v5.64q5.5-6.48,12.91-6.48a14.34,14.34,0,0,1,10.32,4Q590,101.63,590,109v25.26h-12.5V110.05q0-8-6.18-8-4.41,0-8.7,6.56v25.61H550.11V94.56Z"/>
      <path class="cls-1" d="M492.19,150.57a9.33,9.33,0,1,1-9.33-9.32A9.33,9.33,0,0,1,492.19,150.57Z"/>
      <path class="cls-1" d="M486.22,133.14l2.9-54.26a3.2,3.2,0,0,0-3.19-3.36H479.8a3.19,3.19,0,0,0-3.19,3.36l2.87,54.26a3.2,3.2,0,0,0,3.28,3h.14a3.23,3.23,0,0,0,3.32-3Z"/>
    </g>
  </g>
</svg>
